<svg width="189" height="196" viewBox="0 0 189 196" fill="none" xmlns="http://www.w3.org/2000/svg">
<path d="M104.284 174.319C104.746 175.937 105.44 177.439 106.364 178.826C107.058 179.982 107.982 181.137 109.138 182.293C110.524 183.217 112.142 183.795 113.991 184.026C112.373 187.262 110.756 189.458 109.138 190.613C108.213 191.307 107.404 191.769 106.711 192C104.631 192.693 101.511 193.04 97.3506 193.04C93.1904 193.04 89.1458 191.769 85.2168 189.227C83.8301 188.071 82.5589 186.338 81.4033 184.026C80.2477 182.177 79.2077 179.635 78.2832 176.399C77.5898 172.933 77.012 168.541 76.5498 163.226C73.3141 170.159 69.6162 175.706 65.4561 179.866C61.527 183.795 57.598 186.684 53.6689 188.533C49.2777 191.076 44.7708 192.578 40.1484 193.04C34.3704 193.502 28.8236 192.578 23.5078 190.267C18.4232 187.724 14.0319 184.026 10.334 179.173C6.86719 174.088 4.20931 167.964 2.36035 160.799C0.511393 153.634 -0.0664062 145.545 0.626953 136.531C1.32031 127.055 3.16927 118.619 6.17383 111.224C9.17839 103.828 12.7607 97.2409 16.9209 91.4629C21.0811 85.6849 25.4723 80.8314 30.0947 76.9023C34.7171 72.7422 39.1084 69.391 43.2686 66.8486C47.6598 64.0752 51.3577 62.1107 54.3623 60.9551C57.598 59.5684 59.6781 58.7594 60.6025 58.5283C63.1449 57.835 65.3405 57.6038 67.1895 57.835C69.0384 58.0661 70.6562 59.1061 72.043 60.9551C72.5052 61.6484 73.083 62.4574 73.7764 63.3818C74.2386 64.3063 74.8164 65.5775 75.5098 67.1953C76.2031 68.582 76.7809 70.1999 77.2432 72.0488C71.6963 74.5911 66.4961 77.4801 61.6426 80.7158C56.7891 83.7204 52.2822 87.4183 48.1221 91.8096C44.193 96.2008 40.7262 101.517 37.7217 107.757C34.7171 113.997 32.4059 121.624 30.7881 130.638C28.4769 141.963 29.0547 151.092 32.5215 158.025C36.2194 164.959 41.1885 167.848 47.4287 166.692C51.1266 165.537 54.709 163.341 58.1758 160.105C61.1803 157.332 64.3005 153.172 67.5361 147.625C71.0029 142.078 74.2386 134.451 77.2432 124.744C78.3988 110.877 79.3232 100.014 80.0166 92.1562C80.9411 84.0671 81.75 77.9424 82.4434 73.7822C83.3678 68.9287 84.0612 65.693 84.5234 64.0752C85.2168 62.9196 86.6035 61.8796 88.6836 60.9551C90.7637 59.7995 93.0749 58.875 95.6172 58.1816C98.1595 57.4883 100.471 57.1416 102.551 57.1416C104.631 56.9105 106.018 56.9105 106.711 57.1416C107.173 57.3727 107.404 60.2617 107.404 65.8086C107.404 71.1243 107.173 77.9424 106.711 86.2627C106.48 94.3519 106.133 103.25 105.671 112.957C105.209 122.433 104.746 131.447 104.284 139.998C104.053 148.549 103.822 156.061 103.591 162.532C103.591 168.772 103.822 172.701 104.284 174.319ZM145.054 69.2754C145.054 67.8887 146.903 66.3864 150.601 64.7686C154.299 63.1507 158.343 61.8796 162.734 60.9551C167.357 59.7995 171.517 59.2217 175.215 59.2217C179.144 58.9906 181.108 59.7995 181.108 61.6484C181.108 65.1152 180.877 70.0843 180.415 76.5557C179.953 82.7959 179.375 89.4984 178.682 96.6631C177.988 103.597 177.295 110.646 176.602 117.811C175.908 124.744 175.446 130.638 175.215 135.491C174.753 140.576 174.29 146.123 173.828 152.132C173.366 157.216 173.019 162.879 172.788 169.119C172.557 175.359 172.557 181.715 172.788 188.187C172.788 189.342 171.632 190.498 169.321 191.653C167.01 192.809 164.468 193.618 161.694 194.08C158.921 194.773 156.263 195.12 153.721 195.12C151.178 195.12 149.792 194.658 149.561 193.733C149.098 192.809 148.636 191.191 148.174 188.88C147.712 186.569 147.249 183.333 146.787 179.173C146.325 174.782 145.978 169.235 145.747 162.532C145.516 155.599 145.632 147.278 146.094 137.571C147.018 118.388 147.134 103.597 146.44 93.1963C145.747 82.5648 145.285 74.5911 145.054 69.2754ZM169.321 0.286133C173.944 0.286133 178.335 1.67285 182.495 4.44629C186.655 7.21973 188.735 10.9176 188.735 15.54C188.735 19.0068 187.811 22.3581 185.962 25.5938C184.344 28.8294 182.264 31.7184 179.722 34.2607C177.179 36.8031 174.29 38.8831 171.055 40.501C167.819 41.8877 164.814 42.5811 162.041 42.5811C158.343 42.5811 155.339 42.0033 153.027 40.8477C150.716 39.4609 148.867 37.9587 147.48 36.3408C146.325 34.4919 145.516 32.5273 145.054 30.4473C144.591 28.3672 144.36 26.4027 144.36 24.5537C144.36 22.2425 144.707 19.7002 145.4 16.9268C146.094 13.9222 147.365 11.2643 149.214 8.95312C151.063 6.41081 153.605 4.33073 156.841 2.71289C160.076 1.09505 164.237 0.286133 169.321 0.286133ZM160.654 32.5273C162.041 32.5273 163.543 32.0651 165.161 31.1406C167.01 29.985 168.628 28.7139 170.015 27.3271C171.632 25.9404 172.904 24.4382 173.828 22.8203C174.984 21.2025 175.562 19.8158 175.562 18.6602C175.562 16.8112 174.637 15.8867 172.788 15.8867C171.632 15.8867 170.13 16.349 168.281 17.2734C166.663 18.1979 165.046 19.3535 163.428 20.7402C161.81 21.8958 160.423 23.2826 159.268 24.9004C158.343 26.2871 157.881 27.6738 157.881 29.0605C157.881 31.3717 158.805 32.5273 160.654 32.5273Z" fill="#9AB1FF"/>
</svg>
